<svg width="200" height="200" viewBox="0 0 200 200" xmlns="http://www.w3.org/2000/svg">
  <!-- 背景圆形 -->
  <circle cx="100" cy="100" r="95" fill="#2563eb" stroke="#1d4ed8" stroke-width="2"/>
  
  <!-- 膜结构图案 - 主体 -->
  <path d="M50 120 Q100 80 150 120 Q100 160 50 120" fill="#ffffff" opacity="0.9"/>
  <path d="M60 110 Q100 75 140 110 Q100 145 60 110" fill="#3b82f6" opacity="0.7"/>
  
  <!-- 支撑结构线条 -->
  <line x1="50" y1="120" x2="100" y2="80" stroke="#1e40af" stroke-width="2"/>
  <line x1="100" y1="80" x2="150" y2="120" stroke="#1e40af" stroke-width="2"/>
  <line x1="150" y1="120" x2="100" y2="160" stroke="#1e40af" stroke-width="2"/>
  <line x1="100" y1="160" x2="50" y2="120" stroke="#1e40af" stroke-width="2"/>
  
  <!-- 中心支撑点 -->
  <circle cx="100" cy="100" r="4" fill="#1e40af"/>
  <circle cx="75" cy="100" r="2" fill="#3b82f6"/>
  <circle cx="125" cy="100" r="2" fill="#3b82f6"/>
  
  <!-- 公司名称 -->
  <text x="100" y="45" text-anchor="middle" font-family="Arial, sans-serif" font-size="16" font-weight="bold" fill="#1e40af">亚豪膜结构</text>
  
  <!-- 英文标识 -->
  <text x="100" y="180" text-anchor="middle" font-family="Arial, sans-serif" font-size="10" fill="#64748b">YAHAO MEMBRANE</text>
  
  <!-- 装饰性元素 -->
  <circle cx="40" cy="60" r="2" fill="#60a5fa" opacity="0.6"/>
  <circle cx="160" cy="60" r="2" fill="#60a5fa" opacity="0.6"/>
  <circle cx="40" cy="140" r="2" fill="#60a5fa" opacity="0.6"/>
  <circle cx="160" cy="140" r="2" fill="#60a5fa" opacity="0.6"/>
</svg>
